<?xml version="1.0" encoding="UTF-8" standalone="no"?>
<!-- Created with Inkscape (http://www.inkscape.org/) -->

<svg
   xmlns:dc="http://purl.org/dc/elements/1.1/"
   xmlns:cc="http://creativecommons.org/ns#"
   xmlns:rdf="http://www.w3.org/1999/02/22-rdf-syntax-ns#"
   xmlns:svg="http://www.w3.org/2000/svg"
   xmlns="http://www.w3.org/2000/svg"
   xmlns:sodipodi="http://sodipodi.sourceforge.net/DTD/sodipodi-0.dtd"
   xmlns:inkscape="http://www.inkscape.org/namespaces/inkscape"
   width="200"
   height="200"
   viewBox="0 0 310 310.00001"
   id="svg2"
   version="1.1"
   inkscape:version="0.91 r13725"
   sodipodi:docname="proelektro_bw.svg"
   inkscape:export-filename="C:\Users\Kaveri\Desktop\proelektro_bw.png"
   inkscape:export-xdpi="26.488571"
   inkscape:export-ydpi="26.488571">
  <defs
     id="defs4" />
  <sodipodi:namedview
     id="base"
     pagecolor="#ffffff"
     bordercolor="#666666"
     borderopacity="1.0"
     inkscape:pageopacity="0.0"
     inkscape:pageshadow="2"
     inkscape:zoom="1.4"
     inkscape:cx="146.47649"
     inkscape:cy="201.75697"
     inkscape:document-units="px"
     inkscape:current-layer="layer5"
     showgrid="false"
     units="px"
     showguides="false"
     inkscape:window-width="1366"
     inkscape:window-height="716"
     inkscape:window-x="-8"
     inkscape:window-y="-8"
     inkscape:window-maximized="1">
    <inkscape:grid
       type="xygrid"
       id="grid4233" />
  </sodipodi:namedview>
  <metadata
     id="metadata7">
    <rdf:RDF>
      <cc:Work
         rdf:about="">
        <dc:format>image/svg+xml</dc:format>
        <dc:type
           rdf:resource="http://purl.org/dc/dcmitype/StillImage" />
        <dc:title />
      </cc:Work>
    </rdf:RDF>
  </metadata>
  <g
     inkscape:groupmode="layer"
     id="layer2"
     inkscape:label="pola1"
     style="display:inline;opacity:1"
     sodipodi:insensitive="true">
    <path
       style="fill:#000000;fill-opacity:1;fill-rule:evenodd;stroke:#000000;stroke-width:1px;stroke-linecap:butt;stroke-linejoin:miter;stroke-opacity:1"
       d="M 160.89285,19.464286 112.5,101.96429 l 49.50761,84.6608 37.88779,0.43111 8.8546,-17.59191 7.14286,-14.64286 c 0,0 -4.09156,-12.08272 6.60714,-14.86475 5.6929,-1.48035 9.59683,1.414 11.44705,4.45785 1.80573,2.97065 1.17922,6.43237 1.17922,6.43237 0,0 0.14155,3.13964 -2.34454,6.1221 0,0 -4.08004,4.05891 -6.90156,4.8294 l -12.35208,24.9313 43.89794,0.1046 L 307.14286,103.75 258.75,19.285714 206.25,19.107142 195.53571,38.392857 171.96429,80.535714 c 0,0 1.76063,16.652594 -11.96429,18.035714 -14.81431,1.492902 -14.64286,-15.535715 -14.64286,-15.535715 l 0.53572,5 c 0,0 -0.61442,-4.50039 0.79454,-7.796912 1.56936,-3.67181 5.70533,-6.908113 9.38403,-7.203087 1.30394,-0.104556 9.46428,-16.071429 9.46428,-16.071429 l 22.10013,-37.888219 z"
       id="path4253"
       inkscape:connector-curvature="0"
       sodipodi:nodetypes="ccccccssccccccccccsccssccc" />
  </g>
  <g
     inkscape:groupmode="layer"
     id="layer3"
     inkscape:label="pola2"
     style="display:inline"
     sodipodi:insensitive="true">
    <path
       style="fill:#000000;fill-opacity:1;fill-rule:evenodd;stroke:#000000;stroke-width:1px;stroke-linecap:butt;stroke-linejoin:miter;stroke-opacity:1"
       d="m 40.65864,127.41493 -36.996837,63.63961 19.319167,35.48161 55.053314,0 c 0,0 3.409265,-4.9245 9.47018,-3.53554 6.060916,1.38896 7.702413,6.31345 7.702413,6.31345 0,0 1.38896,4.79823 -0.505076,8.83884 -1.894036,4.04061 -6.818529,5.68211 -6.818529,5.68211 0,0 -6.060916,0.12627 -7.449876,-1.51523 -1.388959,-1.6415 -3.535533,-3.40927 -3.535533,-3.40927 l -5.42957,-0.12626 -40.65864,0.25253 10.85914,18.18275 L 115.915,257.47207 152.42843,191.2331 130.98477,156.36729 97.678572,156.25 c 0,0 -2.219156,5.00504 -6.954246,6.33086 -4.73509,1.32583 -9.343906,-1.19956 -10.290929,-2.65165 -0.5674,-0.87001 -2.666215,-2.7437 -3.477516,-5.67006 -0.542799,-1.95788 -0.692066,-3.47661 0.573327,-7.14625 3.156723,-9.1545 14.268405,-6.7554 14.268405,-6.7554 0,0 5.82074,1.17254 6.313453,5.1139 l 28.452754,-0.053 -11.38525,-18.81128 z"
       id="path4258"
       inkscape:connector-curvature="0"
       sodipodi:nodetypes="ccccscscsccccccccssssccccc" />
  </g>
  <g
     inkscape:groupmode="layer"
     id="layer4"
     inkscape:label="pola3"
     style="display:inline"
     sodipodi:insensitive="true">
    <path
       style="fill:#000000;fill-opacity:1;fill-rule:evenodd;stroke:#000000;stroke-width:1px;stroke-linecap:butt;stroke-linejoin:miter;stroke-opacity:1"
       d="m 216.17265,197.62053 -55.30585,-0.75762 -9.59646,17.93022 18.18275,27.77919 c 0,0 4.91083,-1.16164 8.40405,4.48125 1.16072,1.875 3.66071,5.80357 0.44643,10.80357 0,0 -1.875,4.73215 -9.73214,5.71429 0,0 -5.98214,0.80357 -9.01785,-4.64286 0,0 -4.73215,-4.46429 -0.26787,-10.71428 L 143.83929,224.28571 131.875,245.625 l 28.73925,50.61167 57.07362,0.12627 15.90991,-26.89531 -20.96067,-36.11295 c 0,0 -6.43972,0.12626 -6.69226,-7.82869 0,0 -0.75761,-5.6821 5.05076,-7.3236 0,0 5.30331,-2.77792 9.97526,2.65165 0,0 2.90419,2.90419 0.25254,9.34391 l 17.4373,29.53419 8.39286,-13.66071 z"
       id="path4261"
       inkscape:connector-curvature="0"
       sodipodi:nodetypes="ccccsccccccccccccccccc" />
  </g>
  <g
     inkscape:groupmode="layer"
     id="layer5"
     inkscape:label="hub"
     sodipodi:insensitive="true">
    <path
       style="fill:#000000;fill-opacity:1;fill-rule:evenodd;stroke:#000000;stroke-width:1px;stroke-linecap:butt;stroke-linejoin:miter;stroke-opacity:1"
       d="M 159.45345,190.0325 134.98917,148.7825 96.25,148.57143 c 0,0 -0.948883,-2.42932 -3.601537,-4.00063 -2.533922,-1.50098 -6.700648,-2.21904 -9.815954,0.7112 0,0 -5.618974,4.98763 -2.020305,10.66974 0,0 1.704632,3.6618 5.240166,4.23001 0,0 4.04061,1.51523 7.071068,-1.70463 0,0 1.704632,-1.32583 3.093592,-4.98763 l 36.81868,-0.18592 22.58929,37.58929 -13.125,24.82143 20.44643,30.98214 c 0,0 -4.82143,5.44643 -1.16072,10.44643 0,0 3.30358,5.98214 10,3.48214 0,0 5.35715,-2.14286 5.26786,-7.23214 0,0 0,-5.17857 -3.83928,-7.23215 0,0 -2.58929,-2.5 -6.07143,-1.60714 l -20.31118,-28.75 11.44388,-22.02294 47.6173,0.50508 17.32143,-35.17857 c 0,0 5.93881,-1.10578 7.99239,-4.84309 0,0 2.94007,-3.55873 -0.31382,-9.88905 0,0 -4.58421,-5.5727 -10.83421,-0.12627 -2.59972,2.80938 -2.31508,5.67227 -2.31508,5.67227 0,0 0.43522,3.24893 1.08658,5.65708 0.17252,0.63786 -0.13379,-0.6967 0.093,-0.0623 l -16.24459,34.75211 z"
       id="path4268"
       inkscape:connector-curvature="0"
       sodipodi:nodetypes="cccsccccccccccccccccccccccsccc" />
  </g>
  <g
     inkscape:groupmode="layer"
     id="layer6"
     inkscape:label="dots"
     sodipodi:insensitive="true">
    <ellipse
       style="fill:#ffffff;fill-opacity:1;stroke:#ffffff;stroke-opacity:1"
       id="path4271"
       cx="88.266594"
       cy="151.89929"
       rx="5.3698335"
       ry="4.6338835" />
    <ellipse
       style="fill:#ffffff;fill-opacity:1;stroke:#ffffff;stroke-opacity:1"
       id="path4275"
       cx="168.50607"
       cy="252.73697"
       rx="5.2401662"
       ry="5.1138973" />
    <ellipse
       style="fill:#ffffff;fill-opacity:1;stroke:#ffffff;stroke-opacity:1"
       id="path4277"
       cx="225.01147"
       cy="149.89082"
       rx="4.5456862"
       ry="4.0406103" />
  </g>
</svg>
